<?xml version="1.0" standalone="no"?>
<!DOCTYPE svg PUBLIC "-//W3C//DTD SVG 20010904//EN"
 "http://www.w3.org/TR/2001/REC-SVG-20010904/DTD/svg10.dtd">
<svg version="1.0" xmlns="http://www.w3.org/2000/svg"
 width="192.000000pt" height="192.000000pt" viewBox="0 0 192.000000 192.000000"
 preserveAspectRatio="xMidYMid meet">

<g transform="translate(0.000000,192.000000) scale(0.100000,-0.100000)"
fill="#000000" stroke="none">
<path d="M910 1729 c-97 -41 -128 -150 -69 -244 17 -27 33 -64 36 -82 l6 -33
78 0 c62 0 79 3 79 15 0 8 18 48 40 90 44 83 49 119 24 172 -33 68 -129 109
-194 82z m123 -36 c36 -18 70 -91 61 -130 -4 -15 -19 -48 -34 -73 -15 -25 -31
-55 -35 -67 -4 -16 -14 -23 -30 -23 -17 0 -25 7 -28 23 l-4 22 -8 -22 c-9 -29
-55 -33 -55 -5 0 10 -14 40 -30 66 -38 60 -46 94 -30 140 12 37 59 80 95 89
26 5 62 -2 98 -20z"/>
<path d="M948 1613 c-41 -48 -49 -100 -20 -126 26 -24 30 -22 35 21 l4 37 1
-38 c2 -34 4 -37 21 -27 34 17 36 66 7 111 -15 21 -28 39 -30 39 -1 0 -10 -8
-18 -17z"/>
<path d="M692 1471 c-20 -12 48 -81 81 -81 14 0 34 -3 44 -6 11 -4 6 6 -15 25
-36 35 -29 42 12 10 39 -31 35 2 -5 35 -31 27 -89 35 -117 17z"/>
<path d="M890 1350 c0 -6 32 -10 76 -10 47 0 73 4 69 10 -3 6 -37 10 -76 10
-39 0 -69 -4 -69 -10z"/>
<path d="M907 1313 c-14 -13 17 -33 52 -33 35 0 61 14 61 32 0 10 -104 11
-113 1z"/>
<path d="M730 1206 c0 -50 2 -54 29 -66 16 -6 39 -23 52 -36 l23 -25 18 53
c20 62 14 74 -56 108 -62 29 -66 27 -66 -34z"/>
<path d="M927 1228 c-77 -104 -81 -196 -11 -275 l33 -38 1 85 c2 128 18 146
19 21 1 -104 1 -104 21 -86 59 54 80 130 56 202 -16 47 -69 123 -86 123 -5 0
-20 -15 -33 -32z"/>
<path d="M1135 1245 c-16 -7 -42 -24 -57 -37 l-27 -23 18 -52 c17 -51 19 -52
35 -34 9 10 32 27 51 37 33 18 35 21 35 71 0 58 -5 61 -55 38z"/>
<path d="M624 1124 c31 -125 122 -201 264 -217 l42 -5 -25 30 c-14 17 -32 45
-39 62 -33 79 -111 138 -200 151 l-49 8 7 -29z"/>
<path d="M1202 1131 c-63 -22 -105 -59 -137 -122 -13 -25 -36 -60 -50 -78 -30
-35 -30 -35 50 -20 74 13 109 31 158 77 32 31 77 120 77 152 0 15 -39 11 -98
-9z"/>
<path d="M502 861 c-29 -49 -52 -92 -52 -95 0 -2 15 -2 33 1 92 14 370 -50
417 -97 30 -30 85 -26 137 9 71 48 326 103 405 87 15 -3 28 -2 28 3 0 4 -23
47 -51 94 -50 85 -52 87 -90 87 -102 0 -249 -58 -325 -128 l-41 -38 -41 36
c-83 74 -222 130 -322 130 l-46 0 -52 -89z m221 44 c82 -21 152 -59 202 -110
38 -38 45 -41 50 -25 19 59 220 150 331 150 40 0 44 -3 72 -48 l29 -48 -106
-11 c-110 -12 -222 -45 -297 -89 l-41 -23 -66 35 c-78 41 -189 71 -298 80 -43
4 -79 9 -79 11 0 3 12 24 26 49 25 42 28 44 73 44 26 0 73 -7 104 -15z"/>
<path d="M1359 594 c-10 -12 -10 -17 -1 -23 7 -4 10 -15 6 -24 -8 -22 5 -22
22 1 28 36 2 80 -27 46z"/>
<path d="M392 588 c-18 -18 -15 -63 6 -80 9 -8 29 -19 45 -26 54 -23 24 -63
-33 -44 -36 13 -53 -4 -25 -25 25 -18 65 -17 93 3 17 12 22 24 20 47 -2 27
-10 35 -46 52 -52 24 -53 50 -2 49 37 0 57 15 37 28 -19 12 -82 9 -95 -4z"/>
<path d="M590 576 c-5 -14 -23 -57 -40 -97 -16 -39 -30 -73 -30 -75 0 -2 8 -4
18 -4 11 0 24 11 30 25 9 20 19 25 47 25 28 0 38 -5 47 -25 6 -14 19 -25 30
-25 10 0 18 2 18 3 0 2 -18 46 -39 98 -42 99 -64 119 -81 75z m44 -73 c6 -20
4 -23 -18 -23 -30 0 -29 -2 -15 40 12 34 19 30 33 -17z"/>
<path d="M700 585 c0 -9 9 -15 25 -15 23 0 24 -2 27 -82 3 -69 6 -83 20 -86
15 -3 18 8 20 80 2 57 7 83 16 84 6 1 17 2 22 3 6 0 10 8 10 16 0 12 -14 15
-70 15 -56 0 -70 -3 -70 -15z"/>
<path d="M870 593 c0 -5 15 -48 34 -98 45 -120 60 -120 103 -5 37 98 39 113
16 108 -10 -2 -24 -26 -37 -65 -12 -34 -24 -65 -28 -68 -3 -4 -17 25 -29 64
-17 53 -27 71 -41 71 -10 0 -18 -3 -18 -7z"/>
<path d="M1080 500 c0 -82 3 -100 15 -100 12 0 15 18 15 100 0 82 -3 100 -15
100 -12 0 -15 -18 -15 -100z"/>
<path d="M1162 503 c3 -84 6 -98 21 -101 14 -3 17 4 17 45 l0 48 41 -47 c22
-27 49 -48 60 -48 27 0 24 7 -21 56 -22 24 -40 47 -40 52 0 4 16 23 35 42 39
38 43 50 18 50 -10 0 -35 -19 -55 -42 l-37 -43 -1 43 c0 35 -3 42 -20 42 -20
0 -21 -5 -18 -97z"/>
<path d="M1442 588 c-18 -18 -15 -63 6 -80 9 -8 29 -19 45 -26 53 -23 19 -64
-36 -43 -33 13 -48 -6 -22 -26 36 -25 94 -12 115 27 15 28 -2 56 -48 78 -48
22 -49 47 -2 46 34 0 54 12 44 28 -8 13 -89 9 -102 -4z"/>
<path d="M597 322 c-44 -49 -2 -121 63 -107 25 5 30 11 30 36 0 24 -4 29 -25
29 -14 0 -25 -4 -25 -10 0 -5 7 -10 16 -10 21 0 12 -24 -10 -28 -24 -5 -46 16
-46 43 0 28 22 47 52 45 36 -3 44 0 28 10 -24 16 -66 11 -83 -8z"/>
<path d="M750 281 c0 -33 5 -63 10 -66 6 -3 10 3 10 14 0 33 21 35 46 5 16
-20 23 -24 24 -13 0 8 -6 21 -12 28 -10 11 -10 14 0 18 18 7 15 60 -4 67 -9 3
-29 6 -45 6 -29 0 -29 0 -29 -59z m70 19 c0 -15 -7 -20 -25 -20 -18 0 -25 5
-25 20 0 15 7 20 25 20 18 0 25 -5 25 -20z"/>
<path d="M917 322 c-34 -37 -15 -95 33 -107 34 -8 80 27 80 61 0 54 -78 85
-113 46z m84 -23 c16 -30 -3 -69 -34 -69 -29 0 -47 17 -47 45 0 45 60 63 81
24z"/>
<path d="M1092 283 c3 -52 5 -58 30 -67 42 -15 68 14 68 76 0 65 -18 62 -22
-4 -3 -49 -5 -53 -28 -53 -23 0 -25 4 -28 53 -2 28 -8 52 -13 52 -6 0 -9 -24
-7 -57z"/>
<path d="M1250 275 c0 -42 4 -64 10 -60 6 3 10 15 10 25 0 13 8 20 26 22 63 7
55 71 -10 76 l-36 3 0 -66z m68 23 c3 -13 -3 -18 -22 -18 -20 0 -26 5 -26 21
0 15 5 20 22 17 13 -2 24 -11 26 -20z"/>
</g>
</svg>
